<?xml version="1.0" encoding="UTF-8" standalone="no"?><svg xmlns="http://www.w3.org/2000/svg" xmlns:xlink="http://www.w3.org/1999/xlink" contentStyleType="text/css" height="404px" preserveAspectRatio="none" style="width:220px;height:404px;background:#FFFFFF;" version="1.1" viewBox="0 0 220 404" width="220px" zoomAndPan="magnify"><defs/><g><!--MD5=[178fcbcfb8754e8c4f547b55f5c77ece]
cluster Vercel--><g id="cluster_Vercel"><path d="M8.5,167 L60.5,167 A3.75,3.75 0 0 1 63,169.5 L70,189.2969 L119.5,189.2969 A2.5,2.5 0 0 1 122,191.7969 L122,261.5 A2.5,2.5 0 0 1 119.5,264 L8.5,264 A2.5,2.5 0 0 1 6,261.5 L6,169.5 A2.5,2.5 0 0 1 8.5,167 " fill="none" style="stroke:#000000;stroke-width:1.5;"/><line style="stroke:#000000;stroke-width:1.5;" x1="6" x2="70" y1="189.2969" y2="189.2969"/><text fill="#000000" font-family="sans-serif" font-size="14" font-weight="bold" lengthAdjust="spacing" textLength="51" x="10" y="181.9951">Vercel</text></g><!--MD5=[5149901095eb10fcbcec23366c521ff9]
cluster VPS--><g id="cluster_VPS"><path d="M20.5,6 L52.5,6 A3.75,3.75 0 0 1 55,8.5 L62,28.2969 L107.5,28.2969 A2.5,2.5 0 0 1 110,30.7969 L110,100.5 A2.5,2.5 0 0 1 107.5,103 L20.5,103 A2.5,2.5 0 0 1 18,100.5 L18,8.5 A2.5,2.5 0 0 1 20.5,6 " fill="none" style="stroke:#000000;stroke-width:1.5;"/><line style="stroke:#000000;stroke-width:1.5;" x1="18" x2="62" y1="28.2969" y2="28.2969"/><text fill="#000000" font-family="sans-serif" font-size="14" font-weight="bold" lengthAdjust="spacing" textLength="31" x="22" y="20.9951">VPS</text></g><!--MD5=[a096c1983bcf686c95ea726f28f7a0ed]
entity query--><g id="elem_query"><rect fill="#F1F1F1" height="46.2969" rx="2.5" ry="2.5" style="stroke:#181818;stroke-width:0.5;" width="84" x="22" y="202"/><rect fill="#F1F1F1" height="10" style="stroke:#181818;stroke-width:0.5;" width="15" x="86" y="207"/><rect fill="#F1F1F1" height="2" style="stroke:#181818;stroke-width:0.5;" width="4" x="84" y="209"/><rect fill="#F1F1F1" height="2" style="stroke:#181818;stroke-width:0.5;" width="4" x="84" y="213"/><text fill="#000000" font-family="sans-serif" font-size="14" lengthAdjust="spacing" textLength="44" x="37" y="234.9951">query/</text></g><!--MD5=[3a6b8c46e8abe8b8338eeff4c0971985]
entity tg--><g id="elem_tg"><rect fill="#F1F1F1" height="46.2969" rx="2.5" ry="2.5" style="stroke:#181818;stroke-width:0.5;" width="59" x="34.5" y="41"/><rect fill="#F1F1F1" height="10" style="stroke:#181818;stroke-width:0.5;" width="15" x="73.5" y="46"/><rect fill="#F1F1F1" height="2" style="stroke:#181818;stroke-width:0.5;" width="4" x="71.5" y="48"/><rect fill="#F1F1F1" height="2" style="stroke:#181818;stroke-width:0.5;" width="4" x="71.5" y="52"/><text fill="#000000" font-family="sans-serif" font-size="14" lengthAdjust="spacing" textLength="19" x="49.5" y="73.9951">tg/</text></g><!--MD5=[0f2b8fa358a5acf3da72ce74954e2fc8]
entity Pinecone--><g id="elem_Pinecone"><path d="M21.5,352 C21.5,342 64,342 64,342 C64,342 106.5,342 106.5,352 L106.5,377.2969 C106.5,387.2969 64,387.2969 64,387.2969 C64,387.2969 21.5,387.2969 21.5,377.2969 L21.5,352 " fill="#F1F1F1" style="stroke:#181818;stroke-width:0.5;"/><path d="M21.5,352 C21.5,362 64,362 64,362 C64,362 106.5,362 106.5,352 " fill="none" style="stroke:#181818;stroke-width:0.5;"/><text fill="#000000" font-family="sans-serif" font-size="14" lengthAdjust="spacing" textLength="65" x="31.5" y="378.9951">Pinecone</text></g><!--MD5=[8f59e4c215268ce1cd344fb2dd7dba73]
link tg to query--><g id="link_tg_query"><path d="M64,87.11 C64,115.74 64,165.65 64,196.64 " fill="none" id="tg-to-query" style="stroke:#181818;stroke-width:1.0;"/><polygon fill="#181818" points="64,201.82,68,192.82,64,196.82,60,192.82,64,201.82" style="stroke:#181818;stroke-width:1.0;"/><text fill="#000000" font-family="sans-serif" font-size="13" lengthAdjust="spacing" textLength="78" x="99.5" y="132.0669">sends query</text><text fill="#000000" font-family="sans-serif" font-size="13" lengthAdjust="spacing" textLength="147" x="65" y="147.1997">receives search results</text></g><!--MD5=[6c43a6978d9ac3e9ef4417a1f380a24a]
link query to Pinecone--><g id="link_query_Pinecone"><path d="M64,248.09 C64,272.19 64,310.76 64,336.61 " fill="none" id="query-to-Pinecone" style="stroke:#181818;stroke-width:1.0;"/><polygon fill="#181818" points="64,341.92,68,332.92,64,336.92,60,332.92,64,341.92" style="stroke:#181818;stroke-width:1.0;"/><text fill="#000000" font-family="sans-serif" font-size="13" lengthAdjust="spacing" textLength="80" x="87.5" y="293.0669">accesses for</text><text fill="#000000" font-family="sans-serif" font-size="13" lengthAdjust="spacing" textLength="125" x="65" y="308.1997">embedding storage</text></g><!--MD5=[895c3ae97f83bcacd0ad5627280d8a26]
@startuml
package "Vercel" {
    [query/] as query
}

package "VPS" {
    [tg/] as tg
}

database Pinecone

tg - -> query : sends query\nreceives search results
query - -> Pinecone : accesses for\nembedding storage
@enduml

PlantUML version 1.2022.7(Mon Aug 22 17:01:30 UTC 2022)
(GPL source distribution)
Java Runtime: OpenJDK Runtime Environment
JVM: OpenJDK 64-Bit Server VM
Default Encoding: UTF-8
Language: en
Country: null
--></g></svg>